<svg version="1.1" id="Layer_1" xmlns="http://www.w3.org/2000/svg" xmlns:xlink="http://www.w3.org/1999/xlink" x="0px" y="0px" width="100%" viewBox="0 0 387 345" enable-background="new 0 0 387 345" xml:space="preserve">

<path fill="#E6263D" opacity="1.000000" stroke="none" d=" M278.929688,36.084038   C267.959656,32.551815 257.211761,27.730976 245.966980,25.792423   C229.512268,22.955700 213.042053,21.079752 195.869522,23.459206   C177.217041,26.043724 159.710373,31.159901 143.360855,39.643753   C132.380356,45.341591 122.731331,53.637810 112.596786,60.924736   C101.378510,68.990891 93.080795,79.921722 85.223656,90.956131   C76.988152,102.521912 71.479385,115.652229 66.991943,129.185699   C60.842712,147.730820 58.897938,166.837341 60.170860,186.121185   C61.336689,203.782547 65.758095,220.887009 73.038773,237.128860   C80.116325,252.917557 89.646225,267.296173 101.505356,279.674896   C117.234245,296.092926 135.914932,308.753082 157.312881,316.952240   C178.785110,325.179810 201.174637,328.330994 223.988281,326.782898   C234.786682,326.050171 245.458511,323.168488 256.130066,320.979492   C260.872589,320.006653 265.472534,318.338806 270.715942,317.148956   C271.417419,317.441772 271.540161,317.572021 271.662872,317.702301   C256.502960,326.368774 240.702179,333.384155 223.453491,336.820526   C207.466141,340.005615 191.266464,340.934662 175.115082,339.830658   C153.630432,338.362122 133.017014,332.588715 113.836143,322.798676   C98.542923,314.992920 84.693520,305.047821 72.184013,292.987732   C58.971851,280.250214 47.787899,266.059296 39.710720,249.845490   C31.880770,234.127975 25.413498,217.610641 24.010433,199.732727   C23.184906,189.213837 21.823622,178.641418 22.198730,168.146515   C22.747282,152.798935 25.068615,137.691528 30.317102,122.970894   C36.681061,105.121658 44.600208,88.075806 56.504353,73.491127   C65.059692,63.009335 75.521919,54.009609 85.600227,44.863014   C99.989990,31.803549 117.398575,23.610456 135.485275,17.434517   C146.721191,13.597870 158.776276,11.830141 170.609634,10.180954   C179.582275,8.930458 188.817032,8.688187 197.879272,9.133732   C217.082336,10.077850 235.866943,13.522156 253.424316,21.823200   C262.123413,25.936096 270.626526,30.463434 279.261902,35.251308   C279.180267,35.827576 279.054993,35.955803 278.929688,36.084038  z"/>
<path fill="#3C68B3" opacity="1.000000" stroke="none" d=" M231.000107,115.998215   C225.661804,122.680283 220.532135,129.121429 215.067581,135.264694   C213.794357,136.696060 211.391907,137.859909 209.493698,137.882919   C192.852585,138.084610 176.208008,137.999634 158.831757,137.999634   C158.154434,174.931351 157.482224,211.585358 156.803024,248.619720   C141.399643,248.619720 126.027809,248.619720 110.551590,248.619720   C110.387955,248.176620 110.078033,247.730286 110.079536,247.285004   C110.147842,227.183548 110.186821,207.081726 110.354340,186.980988   C110.481354,171.740219 110.723122,156.499756 111.038292,141.261734   C111.106789,137.949890 109.761505,136.922379 106.590202,136.955780   C95.275597,137.074921 83.958977,137.002365 71.186981,137.002365   C75.470505,126.905983 79.911148,117.708557 83.281761,108.134422   C86.592262,98.731064 92.944870,97.614540 101.840561,97.800087   C140.247101,98.601158 178.669876,98.593155 217.084564,99.058372   C225.609528,99.161613 234.125717,99.990692 243.376328,100.527977   C239.064667,105.832901 235.075699,110.740814 231.000107,115.998215  z"/>
<path fill="#E6263D" opacity="1.000000" stroke="none" d=" M261.000000,155.737640   C260.327454,187.552719 259.654907,218.904572 258.982605,250.244354   C243.007462,250.244354 227.213303,250.244354 210.935455,250.244354   C211.662842,214.989990 212.374481,180.497940 213.041107,148.188293   C217.349060,143.540497 220.735489,140.288574 223.655396,136.661102   C232.284332,125.941185 240.729950,115.073708 249.244858,104.262024   C251.621643,101.244141 254.407562,99.779121 258.562653,99.885178   C271.050903,100.203941 283.552490,100.000023 296.048889,100.000023   C312.399597,100.000023 328.750305,100.000031 345.101013,100.000031   C345.257416,100.509338 345.413818,101.018654 345.570221,101.527962   C341.217834,107.339279 336.946442,113.213593 332.489685,118.943726   C328.259094,124.383064 323.575073,129.486374 319.578857,135.085999   C316.489746,139.414505 312.665649,140.302094 307.718811,140.077118   C295.131439,139.504669 282.526123,139.319443 269.927277,139.010040   C267.136078,138.941483 264.341766,139.000000 261.000000,139.000000   C261.000000,144.714340 261.000000,149.994385 261.000000,155.737640  z"/>
<path fill="#3C68B3" opacity="1.000000" stroke="none" d=" M282.379211,72.758682   C270.404541,62.249828 257.041321,54.823250 242.656418,48.978760   C223.835266,41.331837 204.175064,38.867241 184.176361,40.178364   C168.654129,41.196014 153.556625,45.063343 139.212158,51.384026   C138.026001,51.906696 136.850708,52.457844 135.642899,52.924656   C135.387482,53.023369 135.011566,52.810310 134.692230,52.736069   C141.297897,43.209415 183.862244,29.838779 205.725525,28.785532   C232.026382,27.518505 256.938446,31.870737 280.536743,43.278561   C304.100525,54.669697 323.145020,71.438713 338.738861,93.997055   C335.891418,93.997055 333.998352,94.052223 332.109375,93.987701   C322.976624,93.675751 313.840668,93.002792 304.714539,93.122581   C299.266022,93.194092 298.513489,88.284317 295.554138,85.829437   C290.902802,81.970993 286.939056,77.283684 282.379211,72.758682  z"/>
<path fill="#3C68B3" opacity="1.000000" stroke="none" d=" M294.795074,264.703064   C297.554504,259.425110 301.736511,258.651794 306.965240,258.883972   C316.266876,259.296936 325.600037,259.000000 335.021606,259.000000   C307.487640,307.388489 215.034744,348.828033 134.605057,296.686279   C136.001846,297.109344 137.484650,297.354492 138.782623,297.981964   C160.360504,308.412842 183.432831,310.316315 206.767807,308.789032   C222.135040,307.783173 236.845963,303.335938 250.966614,296.686920   C267.604370,288.852661 282.013580,278.279388 294.795074,264.703064  z"/>
<path fill="#E6263D" opacity="1.000000" stroke="none" d=" M271.111084,317.115601   C272.890015,315.834473 274.852570,314.749207 276.815125,313.663910   C276.990387,314.002930 277.165619,314.341949 277.340881,314.680969   C275.629028,315.548676 273.917145,316.416382 271.934082,317.493225   C271.540161,317.572021 271.417419,317.441772 271.111084,317.115601  z"/>
<path fill="#E6263D" opacity="1.000000" stroke="none" d=" M279.493866,35.507439   C280.739532,35.977554 281.796875,36.639572 282.854187,37.301590   C282.759491,37.509663 282.664825,37.717735 282.570129,37.925808   C281.460052,37.506493 280.349976,37.087177 279.084778,36.375946   C279.054993,35.955803 279.180267,35.827576 279.493866,35.507439  z"/>
<path fill="#3C68B3" opacity="1.000000" stroke="none" d=" M132.742096,295.476074   C133.261719,295.477722 133.572189,295.739105 133.882660,296.000488   C133.432770,295.912262 132.982864,295.824036 132.742096,295.476074  z"/>
</svg>